# xmcd
# 
# Track frame offsets:
#     150
#     25485
#     49335
#     70150
#     95425
#     121175
#     140567
#     165392
#     191957
#     213900
#     241827
# 
# Disc length: 3420
# 
# Revision: 4
# Processed by: cddbd v1.5.2PL0 Copyright (c) Steve Scherf et al.
# Submitted via: fre:ac v1.0.31
# 
DISCID=9b0d5a0b
DTITLE=金月真美 - ときめき
DYEAR=1996
DGENRE=seiyu
TTITLE0=恋はPositive
TTITLE1=BI・NE・TSU
TTITLE2=Moon Light Dancing
TTITLE3=記憶(おもい)抱きしめて
TTITLE4=Bye Bye Love
TTITLE5=もっと！モット！ときめき
TTITLE6=さよならをもう一度
TTITLE7=Solitude
TTITLE8=もっと恋しよう
TTITLE9=告白
TTITLE10=二人の時 ～forever～
EXTD=YEAR: 1996
EXTT0=
EXTT1=
EXTT2=
EXTT3=
EXTT4=
EXTT5=
EXTT6=
EXTT7=
EXTT8=
EXTT9=
EXTT10=
PLAYORDER=
